<?xml version="1.0" encoding="UTF-8"?>
<svg version="1.1" xmlns="http://www.w3.org/2000/svg" width="267" height="351">
<path d="M0 0 C3.45344439 1.34548391 6.45320573 2.78915364 9.5625 4.8125 C10.53574219 5.44285156 11.50898438 6.07320312 12.51171875 6.72265625 C13.06263184 7.08246582 13.61354492 7.44227539 14.18115234 7.81298828 C16.16574809 9.1081701 18.1548891 10.39617824 20.14453125 11.68359375 C27.73319279 16.5996916 35.30538284 21.54064676 42.86328125 26.50390625 C43.75509094 27.08924889 43.75509094 27.08924889 44.66491699 27.68641663 C47.74780886 29.70994485 50.82957182 31.73515819 53.90966797 33.76293945 C59.88599884 37.69137612 65.88192648 41.57732327 71.95703125 45.3515625 C83.28584414 52.40981069 93.80144671 59.27377776 103 69 C103.75925781 69.77601562 104.51851562 70.55203125 105.30078125 71.3515625 C125.27063769 92.6376995 128.22537611 119.24582954 128.125 147.1875 C128.12278442 148.00727325 128.12056885 148.82704651 128.11828613 149.67166138 C128.10137472 155.11759111 128.06624451 160.56325495 128.02282715 166.0090332 C127.99907468 169.12124197 127.98047169 172.23345939 127.96191406 175.34570312 C127.92607472 180.80460744 127.86575874 186.26284702 127.79046631 191.72134399 C127.76381629 193.83941738 127.74335389 195.95757907 127.72955322 198.07577515 C127.5282653 226.13481019 120.21625485 249.30000145 100.1953125 269.96875 C89.74054469 280.21669088 76.94264432 288.26523328 64.97412109 296.61523438 C62.00604887 298.69721628 59.06699203 300.81892265 56.125 302.9375 C50.66431904 306.86067684 45.12327026 310.6578794 39.5625 314.4375 C33.67281406 318.44236911 27.85118155 322.51447208 22.125 326.75 C20.921892 327.63543976 19.71876732 328.52085686 18.515625 329.40625 C16.73200789 330.71965882 14.95135382 332.03639339 13.17773438 333.36328125 C11.42028163 334.67334806 9.64962466 335.96333365 7.875 337.25 C6.86179688 337.99765625 5.84859375 338.7453125 4.8046875 339.515625 C2 341 2 341 -0.38671875 341.0625 C-4.2292485 339.50021585 -7.35610595 337.19711618 -10.6875 334.75 C-11.8002832 333.94852539 -11.8002832 333.94852539 -12.93554688 333.13085938 C-15.29609128 331.42833407 -17.64814393 329.71450065 -20 328 C-21.50587282 326.91057646 -23.01237405 325.82202098 -24.51953125 324.734375 C-26.77083034 323.10954143 -29.02176988 321.48424077 -31.27075195 319.85620117 C-36.28451304 316.22822616 -41.31821228 312.63025239 -46.375 309.0625 C-47.06174805 308.57797363 -47.74849609 308.09344727 -48.45605469 307.59423828 C-52.31279162 304.8784898 -56.17980207 302.17807184 -60.0546875 299.48828125 C-69.55858543 292.88480172 -78.97509243 286.2502815 -88 279 C-88.54736816 278.56091309 -89.09473633 278.12182617 -89.65869141 277.66943359 C-109.91643293 261.31120576 -123.78357608 241.43484616 -127 215 C-127.5323766 207.57885164 -127.44769316 200.13114307 -127.43359375 192.6953125 C-127.43816776 190.5602909 -127.4434769 188.42527075 -127.44947815 186.29025269 C-127.45835992 181.83748353 -127.45604288 177.3848942 -127.44604492 172.93212891 C-127.43456376 167.27181404 -127.45477967 161.61212388 -127.48396206 155.95189095 C-127.50245123 151.54877893 -127.50200641 147.14581312 -127.49632454 142.74267197 C-127.49617287 140.65781656 -127.50208737 138.57295024 -127.51461601 136.48813248 C-127.59413916 121.08988314 -126.87197109 105.53097586 -119.3125 91.6875 C-118.9721875 91.0378125 -118.631875 90.388125 -118.28125 89.71875 C-111.07467622 76.38003707 -101.11379388 65.97318065 -89 57 C-88.01 57.495 -88.01 57.495 -87 58 C-86.99853344 58.76438668 -86.99706688 59.52877337 -86.99555588 60.31632328 C-86.95839586 78.97322076 -86.89926004 97.62993243 -86.81609726 116.28668308 C-86.77640119 125.3092075 -86.74396103 134.33164589 -86.72900391 143.35424805 C-86.71593824 151.22449652 -86.68884928 159.09455495 -86.64538693 166.96469635 C-86.62288188 171.12634156 -86.60708267 175.28775334 -86.60811615 179.4494648 C-86.60886932 183.37878115 -86.59065962 187.30758366 -86.55883217 191.23676682 C-86.55041878 192.66723086 -86.54852386 194.09775313 -86.55419731 195.52823067 C-86.61252587 212.51792487 -82.6827649 228.78546842 -70.7578125 241.50390625 C-59.69599764 251.51594548 -46.77659689 259.60573657 -34.453125 267.9609375 C-29.2723595 271.48074513 -24.18146096 275.11964136 -19.09765625 278.77734375 C-15.4502436 281.39446582 -11.77301238 283.96652553 -8.0859375 286.52734375 C-6 288 -6 288 -4.0390625 289.81640625 C-2.05005511 291.27670171 -2.05005511 291.27670171 0.265625 290.51171875 C3.9214363 288.49057736 7.32933971 286.20631435 10.75 283.8125 C11.41515625 283.35552734 12.0803125 282.89855469 12.765625 282.42773438 C14.13819272 281.4761754 15.49689874 280.50435322 16.84204102 279.5144043 C19 278 19 278 21.48413086 276.63598633 C24.23963654 274.95572006 26.04328628 273.58066716 28 271 C29.23892279 265.66781774 29.17246127 260.50957582 29.0625 255.0625 C29.06557842 253.60089716 29.0727026 252.13929692 29.08398438 250.67773438 C29.10272248 247.1173149 29.0664256 243.55996694 29 240 C23.27309115 243.11195181 18.06589827 246.71231775 12.8125 250.5625 C12.01908203 251.13935547 11.22566406 251.71621094 10.40820312 252.31054688 C6.13934153 255.38044265 6.13934153 255.38044265 2.05737305 258.68725586 C-0.55214219 260.35230433 -1.95243871 260.42887423 -5 260 C-7.05786133 258.90527344 -7.05786133 258.90527344 -9.08203125 257.359375 C-9.8412085 256.78936768 -10.60038574 256.21936035 -11.38256836 255.63208008 C-12.1844458 255.01099365 -12.98632324 254.38990723 -13.8125 253.75 C-14.64982666 253.11537842 -15.48715332 252.48075684 -16.34985352 251.8269043 C-18.07341511 250.5202466 -19.79370807 249.20926642 -21.51074219 247.89404297 C-23.78351295 246.1647221 -26.07513428 244.4674632 -28.3828125 242.78515625 C-45.08085251 230.58655251 -60.0126437 218.36380603 -63.5328474 196.72449303 C-63.96563616 193.27397449 -64.15448957 189.96080631 -64.20100403 186.48623657 C-64.21972061 185.2190831 -64.23843719 183.95192963 -64.25772095 182.64637756 C-64.27331625 181.25985923 -64.2887213 179.87333875 -64.30395508 178.48681641 C-64.32333878 177.01271765 -64.34296289 175.53862203 -64.36280823 174.06452942 C-64.53560471 160.65284008 -64.62966934 147.24008201 -64.70387745 133.82752419 C-64.75983079 123.92381552 -64.8547124 114.0220518 -64.99953538 104.11923659 C-65.09813237 97.14156118 -65.15063295 90.16442043 -65.16973227 83.18608034 C-65.18247882 79.02368582 -65.21568131 74.86382206 -65.29932594 70.70219803 C-65.37722586 66.78594896 -65.39782544 62.87345405 -65.37558556 58.95653343 C-65.3772817 57.52495162 -65.39932824 56.09321676 -65.44392395 54.66232872 C-65.62428192 48.56025342 -65.7260303 43.87172283 -61.45154381 39.23643112 C-58.39507888 36.91337783 -55.31098199 34.93846715 -52 33 C-49.94857865 31.61207308 -47.90327336 30.21501549 -45.8671875 28.8046875 C-43.87258812 27.49053739 -41.87519831 26.18061247 -39.875 24.875 C-38.84890625 24.19179688 -37.8228125 23.50859375 -36.765625 22.8046875 C-35.78851563 22.1653125 -34.81140625 21.5259375 -33.8046875 20.8671875 C-32.92796387 20.29081543 -32.05124023 19.71444336 -31.14794922 19.12060547 C-30.43912598 18.75080566 -29.73030273 18.38100586 -29 18 C-28.34 18.33 -27.68 18.66 -27 19 C-26.99503478 20.27083514 -26.99503478 20.27083514 -26.98996925 21.56734371 C-26.908683 42.19989664 -26.81657209 62.83237662 -26.71247292 83.46482754 C-26.6623909 93.44260061 -26.61594749 103.42036566 -26.578125 113.39819336 C-26.54514249 122.09675089 -26.50527676 130.79524526 -26.45720994 139.49373299 C-26.43200715 144.09778786 -26.41020759 148.70180116 -26.39665604 153.3059063 C-26.38377912 157.64380864 -26.3616645 161.98156799 -26.33261681 166.31939125 C-26.3235849 167.90718917 -26.3178611 169.49501009 -26.31578636 171.08283234 C-26.29687273 183.36441203 -25.87738932 193.98008965 -18 204 C-14.85904989 206.9650569 -11.55966954 209.55731076 -8 212 C-7.17628906 212.58910156 -6.35257812 213.17820313 -5.50390625 213.78515625 C-2.39070137 215.29561915 -1.27960506 214.92358109 2 214 C4.1299378 212.90731968 4.1299378 212.90731968 6.14453125 211.48828125 C6.90443359 210.97716797 7.66433594 210.46605469 8.44726562 209.93945312 C9.22779297 209.40255859 10.00832031 208.86566406 10.8125 208.3125 C11.58142578 207.79494141 12.35035156 207.27738281 13.14257812 206.74414062 C15.44546733 205.18361739 17.73389246 203.61367906 20 202 C20.64585902 201.62540177 21.29171804 201.25080355 21.95714855 200.86485386 C26.27881982 198.14681942 26.27881982 198.14681942 28.74421406 193.83988285 C29.02458889 191.21381614 29.05554279 188.68795828 29 186.04736328 C29.01092178 185.0613765 29.02184357 184.07538971 29.03309631 183.05952454 C29.05973283 179.81206402 29.03017111 176.56770035 29 173.3203125 C29.00751967 171.06442873 29.01855459 168.80855417 29.03295898 166.55270386 C29.06138382 160.62417861 29.04210734 154.69673351 29.01287842 148.76824951 C28.99148174 142.7152196 29.01522124 136.66238494 29.03515625 130.609375 C29.06759984 118.73933965 29.04964871 106.86995599 29 95 C32.97539231 95.70127337 35.35430922 96.66144105 38.625 99.0625 C39.49125 99.69542969 40.3575 100.32835938 41.25 100.98046875 C42.61125 101.98013672 42.61125 101.98013672 44 103 C44.928125 103.63550781 45.85625 104.27101563 46.8125 104.92578125 C56.79452098 111.84387634 63.98102164 118.50048169 66.63658142 130.717556 C68.1016836 139.91910446 67.60617464 149.48231813 67.609375 158.76953125 C67.62437464 161.26202967 67.6411055 163.75451822 67.65948486 166.24699402 C67.70296979 172.76852911 67.72311569 179.28993015 67.73822021 185.81158447 C67.75572276 192.48188999 67.79982173 199.15206546 67.83984375 205.82226562 C67.91494156 218.88146162 67.96611612 231.9406353 68 245 C69.2861363 243.74282855 70.56813314 242.48142141 71.84838867 241.21826172 C72.56274582 240.51627655 73.27710297 239.81429138 74.0131073 239.09103394 C84.78897714 227.75035634 88.08212878 212.37883908 88.16113281 197.24560547 C88.16609772 196.51590042 88.17106262 195.78619537 88.17617798 195.03437805 C88.19065597 192.64530455 88.19757835 190.25629748 88.203125 187.8671875 C88.20595238 187.04249088 88.20877975 186.21779427 88.21169281 185.36810684 C88.22662909 181.00126075 88.23589292 176.6344472 88.24023438 172.26757812 C88.2457024 167.79625179 88.26971113 163.32523249 88.29820633 158.854002 C88.31698872 155.38092221 88.32204658 151.907914 88.32357025 148.43478775 C88.32656363 146.7884364 88.33447734 145.14208528 88.34775543 143.49578476 C88.47563413 126.41832817 86.60086197 107.71885435 73.95385742 94.7980957 C64.56586888 86.15851859 53.63606528 79.29454518 42.97320557 72.36947632 C40.44530058 70.71418235 37.93779005 69.03125585 35.43310547 67.34106445 C25.04696353 60.34314121 25.04696353 60.34314121 13.8515625 54.80859375 C2.83346304 49.97538868 2.83346304 49.97538868 0 44 C-2.99803326 29.78813613 -1.25194229 14.33909579 0 0 Z " fill="#FBF9E7" transform="translate(133,5)"/>
<path d="M0 0 C2.5 0.125 2.5 0.125 3.5 1.125 C3.58871273 4.15477804 3.6151935 7.16167022 3.59765625 10.19140625 C3.5962413 11.10002914 3.59482635 12.00865204 3.59336853 12.94480896 C3.58775193 15.85907221 3.57519665 18.77325981 3.5625 21.6875 C3.55748714 23.65820202 3.55292386 25.62890524 3.54882812 27.59960938 C3.53777711 32.44143559 3.52050138 37.28320495 3.5 42.125 C-1.25 43.25 -1.25 43.25 -3.5 42.125 C-3.52464638 36.30428378 -3.5428343 30.48359766 -3.55493164 24.6628418 C-3.55997267 22.68106559 -3.56680538 20.69929311 -3.57543945 18.7175293 C-3.58751515 15.87547891 -3.59323045 13.03347753 -3.59765625 10.19140625 C-3.60281754 9.29974258 -3.60797882 8.40807892 -3.61329651 7.48939514 C-3.61349177 5.36759399 -3.5621003 3.2458922 -3.5 1.125 C-2.5 0.125 -2.5 0.125 0 0 Z " fill="#E9E8DA" transform="translate(134.5,79.875)"/>
<path d="M0 0 C2.31 0 4.62 0 7 0 C7.02464638 5.82071622 7.0428343 11.64140234 7.05493164 17.4621582 C7.05997267 19.44393441 7.06680538 21.42570689 7.07543945 23.4074707 C7.08751515 26.24952109 7.09323045 29.09152247 7.09765625 31.93359375 C7.10281754 32.82525742 7.10797882 33.71692108 7.11329651 34.63560486 C7.11349177 36.75740601 7.0621003 38.8791078 7 41 C6 42 6 42 3.5 42.125 C1 42 1 42 0 41 C-0.08871273 37.97022196 -0.1151935 34.96332978 -0.09765625 31.93359375 C-0.0962413 31.02497086 -0.09482635 30.11634796 -0.09336853 29.18019104 C-0.08775193 26.26592779 -0.07519665 23.35174019 -0.0625 20.4375 C-0.05748714 18.46679798 -0.05292386 16.49609476 -0.04882812 14.52539062 C-0.03777711 9.68356441 -0.02050138 4.84179505 0 0 Z " fill="#FCFAE9" transform="translate(131,152)"/>
<path d="M0 0 C1.65 0.33 3.3 0.66 5 1 C4.01 1.66 3.02 2.32 2 3 C1.53376167 6.09040579 1.53376167 6.09040579 1.60127258 9.80825806 C1.59462576 10.51642146 1.58797893 11.22458487 1.58113068 11.95420778 C1.56240441 14.33891928 1.56511232 16.72313329 1.56762695 19.10791016 C1.55861563 20.81262425 1.54828998 22.51733183 1.53674316 24.22203064 C1.50907289 28.86021095 1.49987511 33.49826867 1.49388909 38.13652086 C1.48453141 42.97992887 1.45833025 47.82324434 1.43388367 52.66659546 C1.39014302 61.84278771 1.3616426 71.01896209 1.33856028 80.19522703 C1.31154907 90.64010955 1.26763513 101.08489934 1.22227156 111.52971578 C1.12931698 133.0197607 1.05768586 154.50983338 1 176 C0.67 176 0.34 176 0 176 C0 165.77 0 155.54 0 145 C-0.99 144.67 -1.98 144.34 -3 144 C-2.34 143.67 -1.68 143.34 -1 143 C-0.67 129.8 -0.34 116.6 0 103 C-0.66 102.67 -1.32 102.34 -2 102 C-1.505 101.505 -1.505 101.505 -1 101 C-0.87457722 97.86510797 -0.81386331 94.75120163 -0.79467773 91.61499023 C-0.78477814 90.62973358 -0.77487854 89.64447693 -0.76467896 88.62936401 C-0.73296006 85.3557988 -0.70826563 82.08221905 -0.68359375 78.80859375 C-0.66303318 76.54557405 -0.64203696 74.28255827 -0.62062073 72.01954651 C-0.56530734 66.05025395 -0.51593907 60.08092621 -0.46777344 54.11157227 C-0.4176259 48.02552136 -0.3619047 41.93952184 -0.30664062 35.85351562 C-0.19894578 23.90238759 -0.09752613 11.95121504 0 0 Z " fill="#DBD9D0" transform="translate(162,100)"/>
<path d="M0 0 C2.31 0 4.62 0 7 0 C7.02464638 5.82071622 7.0428343 11.64140234 7.05493164 17.4621582 C7.05997267 19.44393441 7.06680538 21.42570689 7.07543945 23.4074707 C7.08751515 26.24952109 7.09323045 29.09152247 7.09765625 31.93359375 C7.10281754 32.82525742 7.10797882 33.71692108 7.11329651 34.63560486 C7.11349177 36.75740601 7.0621003 38.8791078 7 41 C6 42 6 42 3.5 42.125 C1 42 1 42 0 41 C-0.08871273 37.97022196 -0.1151935 34.96332978 -0.09765625 31.93359375 C-0.0962413 31.02497086 -0.09482635 30.11634796 -0.09336853 29.18019104 C-0.08775193 26.26592779 -0.07519665 23.35174019 -0.0625 20.4375 C-0.05748714 18.46679798 -0.05292386 16.49609476 -0.04882812 14.52539062 C-0.03777711 9.68356441 -0.02050138 4.84179505 0 0 Z M1 1 C1 13.87 1 26.74 1 40 C2.32 40 3.64 40 5 40 C6.05736038 26.99069108 6.11145896 14.04584256 6 1 C4.35 1 2.7 1 1 1 Z " fill="#CBCAC3" transform="translate(131,152)"/>
<path d="M0 0 C2.475 0.99 2.475 0.99 5 2 C4.01 2.33 3.02 2.66 2 3 C1.67 16.53 1.34 30.06 1 44 C0.67 44 0.34 44 0 44 C0 29.48 0 14.96 0 0 Z " fill="#DCDBD3" transform="translate(133,5)"/>
<path d="M0 0 C0.66 0.33 1.32 0.66 2 1 C-5.11389522 9.6309795 -5.11389522 9.6309795 -10 12 C-8.52278578 8.54798361 -6.56205999 6.35038064 -3.875 3.75 C-3.15054687 3.04359375 -2.42609375 2.3371875 -1.6796875 1.609375 C-1.12539063 1.07828125 -0.57109375 0.5471875 0 0 Z " fill="#DDDBD2" transform="translate(35,69)"/>
</svg>
